<?xml version="1.0" encoding="UTF-8"?>
<!DOCTYPE svg PUBLIC "-//W3C//DTD SVG 1.1//EN" "http://www.w3.org/Graphics/SVG/1.1/DTD/svg11.dtd">
<!-- Creator: CorelDRAW 2021.5 -->
<svg xmlns="http://www.w3.org/2000/svg" xml:space="preserve" width="256px" height="256px" version="1.1" style="shape-rendering:geometricPrecision; text-rendering:geometricPrecision; image-rendering:optimizeQuality; fill-rule:evenodd; clip-rule:evenodd"
viewBox="0 0 10.89 10.89"
 xmlns:xlink="http://www.w3.org/1999/xlink"
 xmlns:xodm="http://www.corel.com/coreldraw/odm/2003">
 <defs>
  <style type="text/css">
   <![CDATA[
    .fil0 {fill:none}
    .fil2 {fill:#04BAD2}
    .fil1 {fill:#FFAC1B}
   ]]>
  </style>
 </defs>
 <g id="Слой_x0020_1">
  <metadata id="CorelCorpID_0Corel-Layer"/>
  <path class="fil0" d="M1.13 0l8.63 0c0.62,0 1.13,0.51 1.13,1.13l0 8.63c0,0.62 -0.51,1.13 -1.13,1.13l-8.63 0c-0.62,0 -1.13,-0.51 -1.13,-1.13l0 -8.63c0,-0.62 0.51,-1.13 1.13,-1.13z"/>
  <circle class="fil1" cx="7.41" cy="3.48" r="0.79"/>
  <circle class="fil1" cx="5.45" cy="3.48" r="0.79"/>
  <circle class="fil1" cx="7.41" cy="5.45" r="0.79"/>
  <circle class="fil1" cx="7.41" cy="7.41" r="0.79"/>
  <circle class="fil1" cx="3.48" cy="5.45" r="0.79"/>
  <circle class="fil1" cx="3.48" cy="3.48" r="0.79"/>
  <circle class="fil1" cx="5.45" cy="7.41" r="0.79"/>
  <circle class="fil1" cx="3.48" cy="7.41" r="0.79"/>
  <path class="fil2" d="M1.62 0.72l7.65 0c0.5,0 0.91,0.4 0.91,0.9l0 7.65c0,0.5 -0.41,0.91 -0.91,0.91l-7.65 0c-0.5,0 -0.9,-0.41 -0.9,-0.91l0 -7.65c0,-0.5 0.4,-0.9 0.9,-0.9zm0.88 1.33l5.89 0c0.25,0 0.46,0.2 0.46,0.45l0 5.89c0,0.25 -0.21,0.46 -0.46,0.46l-5.89 0c-0.25,0 -0.45,-0.21 -0.45,-0.46l0 -5.89c0,-0.25 0.2,-0.45 0.45,-0.45z"/>
 </g>
</svg>
